# This file uses centimeters as units for non-parametric coordinates.

mtllib ControlTower.mtl
g default
v -0.903831 27.816141 -1.679616
v -2.744973 27.816141 -9.954510
v -3.068229 27.816141 1.852092
v 0.576621 27.816141 -0.115821
v 8.738373 27.816141 2.175342
v 2.891643 27.816141 -0.052437
v 5.206662 27.816141 0.010944
v 6.770460 27.816141 -1.469505
v 6.833844 27.816141 -3.784527
v 6.897225 27.816141 -6.099549
v 9.061623 27.816141 -9.631257
v 5.416776 27.816141 -7.663344
v 3.101754 27.816141 -7.726728
v 0.786732 27.816141 -7.790109
v -0.777063 27.816141 -6.309660
v -0.840447 27.816141 -3.994638
v 0.125859 21.910629 -6.922044
v -0.035763 21.910629 -1.018746
v -2.744973 21.910629 -9.954510
v 9.061623 21.910629 -9.631257
v 6.029160 21.910629 -6.760419
v 8.738373 21.910629 2.175342
v 5.867535 21.910629 -0.857121
v -3.068229 21.910629 1.852092
v -1.944336 32.540550 -6.831030
v -2.097879 32.540550 -1.222896
v 0.055251 32.540550 1.051449
v 0.330012 32.540550 -8.984160
v 5.663382 32.540550 1.204995
v 5.938146 32.540550 -8.830614
v 6.800556 32.540550 0.128430
v 8.091273 32.540550 -6.556269
v 7.937733 32.540550 -0.948135
v -17.929724 3.603543 -5.706909
v -17.929724 3.603543 9.954510
v 17.929724 3.603543 9.954510
v -0.035763 3.603543 -1.018746
v 5.867535 3.603543 -0.857121
v 6.002709 3.603543 -5.794311
v 6.029160 3.603543 -6.760419
v 9.354921 3.603543 -5.560452
v 17.929724 3.603543 -5.560452
v 9.354921 3.603543 -7.125414
v 6.002709 3.603543 -6.761145
v 0.125859 3.603543 -6.922044
v -5.249412 3.603543 -7.125414
v -5.249412 3.603543 -5.706909
v -5.249412 0.000000 -5.706909
v -5.249412 0.000000 -7.125414
v 9.354921 0.000000 -7.125414
v 9.354921 0.000000 -5.560452
v 17.929724 0.000000 9.954510
v -17.929724 0.000000 9.954510
v -17.929724 0.000000 -5.706909
v 17.929724 0.000000 -5.560452
vt 0.129924 0.592072
vt 0.226449 0.592072
vt 0.129924 0.785050
vt 0.226449 0.785050
vt 0.737932 0.001960
vt 0.737932 0.301188
vt 0.641443 0.001960
vt 0.641443 0.301188
vt 0.382233 0.838964
vt 0.459453 0.831499
vt 0.382233 0.876803
vt 0.459453 0.794325
vt 0.459453 0.923164
vt 0.382233 0.813404
vt 0.382233 0.914642
vt 0.459453 0.958357
vt 0.382233 0.938840
vt 0.098517 0.982020
vt 0.001992 0.982020
vt 0.098517 0.789042
vt 0.001992 0.789042
vt 0.848032 0.001960
vt 0.928730 0.001960
vt 0.848032 0.301188
vt 0.944521 0.301188
vt 0.944521 0.001960
vt 0.543258 0.831499
vt 0.543258 0.923164
vt 0.466038 0.876803
vt 0.466038 0.914642
vt 0.466038 0.838964
vt 0.543258 0.958357
vt 0.543258 0.794325
vt 0.466038 0.938840
vt 0.466038 0.813404
vt 0.836484 0.305180
vt 0.895384 0.305180
vt 0.836484 0.561165
vt 0.895384 0.561165
vt 0.830349 0.558771
vt 0.771449 0.558771
vt 0.830349 0.305180
vt 0.771449 0.305180
vt 0.889073 0.762955
vt 0.889073 0.704056
vt 0.914652 0.762955
vt 0.914652 0.704056
vt 0.882938 0.704056
vt 0.882938 0.762955
vt 0.859753 0.704056
vt 0.859753 0.762955
vt 0.635243 0.785050
vt 0.442265 0.790334
vt 0.499991 0.754957
vt 0.474431 0.730759
vt 0.537830 0.753921
vt 0.473395 0.692920
vt 0.575669 0.752885
vt 0.436982 0.597356
vt 0.599866 0.727325
vt 0.472359 0.655081
vt 0.629960 0.592072
vt 0.496557 0.629521
vt 0.598831 0.689486
vt 0.534395 0.628485
vt 0.597795 0.651647
vt 0.572234 0.627449
vt 0.378639 0.740768
vt 0.232585 0.785050
vt 0.282150 0.738127
vt 0.425563 0.790334
vt 0.237868 0.592072
vt 0.430846 0.597356
vt 0.284792 0.641638
vt 0.381281 0.644279
vt 0.211286 0.925674
vt 0.208776 0.834009
vt 0.248460 0.960866
vt 0.243969 0.796835
vt 0.340124 0.958357
vt 0.335633 0.794325
vt 0.375317 0.921183
vt 0.354220 0.811922
vt 0.372807 0.829518
vt 0.257977 0.588081
vt 0.001992 0.588081
vt 0.181349 0.295605
vt 0.001992 0.001960
vt 0.257977 0.380822
vt 0.178707 0.199116
vt 0.277838 0.292963
vt 0.259406 0.196906
vt 0.281162 0.380822
vt 0.255583 0.142115
vt 0.281162 0.142115
vt 0.255583 0.001960
vt 0.275197 0.196474
vt 0.275208 0.196906
vt 0.643739 0.921833
vt 0.618179 0.897635
vt 0.681578 0.920797
vt 0.719417 0.919761
vt 0.617143 0.859796
vt 0.743615 0.894201
vt 0.742579 0.856362
vt 0.616107 0.821957
vt 0.640305 0.796397
vt 0.741543 0.818523
vt 0.678144 0.795361
vt 0.715983 0.794325
vt 0.288683 0.380822
vt 0.288683 0.142115
vt 0.311868 0.380822
vt 0.314262 0.142115
vt 0.567853 0.001960
vt 0.314262 0.001960
vt 0.567853 0.588081
vt 0.311868 0.588081
vt 0.849715 0.661645
vt 0.849283 0.661657
vt 0.849283 0.645854
vt 0.847074 0.565156
vt 0.750585 0.567798
vt 0.753226 0.664287
vt 0.934997 0.616921
vt 0.934997 0.654760
vt 0.857777 0.700064
vt 0.934997 0.692599
vt 0.857777 0.608400
vt 0.027264 0.785050
vt 0.027264 0.592072
vt 0.123789 0.785050
vt 0.123789 0.592072
vt 0.202007 0.789042
vt 0.202007 0.982020
vt 0.105481 0.789042
vt 0.105481 0.982020
vt 0.744738 0.001960
vt 0.841227 0.001960
vt 0.744738 0.301188
vt 0.841227 0.301188
vt 0.998008 0.604408
vt 0.997576 0.604408
vt 0.901519 0.305180
vt 0.901519 0.604408
vt 0.998008 0.305180
vt 0.920788 0.787198
vt 0.920788 0.749360
vt 0.998008 0.704056
vt 0.920788 0.711521
vt 0.998008 0.795720
vt 0.575179 0.588081
vt 0.575179 0.001960
vt 0.634079 0.588081
vt 0.634079 0.001960
vt 0.765314 0.305180
vt 0.765314 0.543887
vt 0.706414 0.305180
vt 0.706414 0.543887
vt 0.608742 0.794325
vt 0.608742 0.934480
vt 0.549842 0.794325
vt 0.549842 0.934480
vt 0.700278 0.305180
vt 0.700278 0.512439
vt 0.641379 0.305180
vt 0.641379 0.512439
vn 0.000000 1.000000 0.000000
vn 0.000000 1.000000 0.000000
vn 0.000000 1.000000 0.000000
vn 0.000000 1.000000 0.000000
vn 0.000000 1.000000 0.000000
vn 0.000000 1.000000 0.000000
vn 0.000000 1.000000 0.000000
vn 0.000000 1.000000 0.000000
vn 0.000000 1.000000 0.000000
vn 0.000000 1.000000 0.000000
vn 0.000000 1.000000 0.000000
vn 0.000000 1.000000 0.000000
vn 0.000000 1.000000 0.000000
vn 0.000000 1.000000 0.000000
vn 0.000000 1.000000 0.000000
vn 0.000000 1.000000 0.000000
vn 0.000000 1.000000 0.000000
vn 0.000000 1.000000 0.000000
vn 0.000000 1.000000 0.000000
vn 0.000000 1.000000 0.000000
vn 0.000000 1.000000 0.000000
vn 0.000000 1.000000 0.000000
vn 0.000000 1.000000 0.000000
vn 0.000000 1.000000 0.000000
vn 0.000000 1.000000 0.000000
vn 0.000000 1.000000 0.000000
vn 0.000000 1.000000 0.000000
vn 0.000000 1.000000 0.000000
vn 0.000000 1.000000 0.000000
vn 0.000000 1.000000 0.000000
vn 0.000000 1.000000 0.000000
vn 0.000000 1.000000 0.000000
vn 0.000000 1.000000 0.000000
vn 0.000000 1.000000 0.000000
vn 0.000000 1.000000 0.000000
vn 0.000000 1.000000 0.000000
vn 0.000000 1.000000 0.000000
vn 0.000000 1.000000 0.000000
vn 0.000000 1.000000 0.000000
vn 0.000000 1.000000 0.000000
vn 0.000000 1.000000 0.000000
vn 0.000000 1.000000 0.000000
vn 0.000000 1.000000 0.000000
vn 0.000000 1.000000 0.000000
vn 0.000000 1.000000 0.000000
vn 0.000000 1.000000 0.000000
vn 0.000000 1.000000 0.000000
vn 0.000000 1.000000 0.000000
vn 0.000000 -1.000000 0.000000
vn 0.000000 -1.000000 0.000000
vn 0.000000 -1.000000 0.000000
vn 0.000000 -1.000000 0.000000
vn 0.000000 -1.000000 0.000000
vn 0.000000 -1.000000 0.000000
vn 0.000000 -1.000000 0.000000
vn 0.000000 -1.000000 0.000000
vn 0.000000 -1.000000 0.000000
vn 0.000000 -1.000000 0.000000
vn 0.000000 -1.000000 0.000000
vn 0.000000 -1.000000 0.000000
vn 0.000000 -1.000000 0.000000
vn 0.000000 -1.000000 0.000000
vn 0.000000 -1.000000 0.000000
vn 0.000000 -1.000000 0.000000
vn 0.000000 -1.000000 0.000000
vn 0.000000 -1.000000 0.000000
vn 0.000000 -1.000000 0.000000
vn 0.000000 -1.000000 0.000000
vn 0.000000 -1.000000 0.000000
vn 0.000000 -1.000000 0.000000
vn 0.000000 -1.000000 0.000000
vn 0.000000 -1.000000 0.000000
vn 0.000000 1.000000 0.000000
vn 0.000000 1.000000 0.000000
vn 0.000000 1.000000 0.000000
vn 0.000000 1.000000 0.000000
vn 0.000000 1.000000 0.000000
vn 0.000000 1.000000 0.000000
vn 0.000000 1.000000 0.000000
vn 0.000000 1.000000 0.000000
vn 0.000000 1.000000 0.000000
vn 0.000000 1.000000 0.000000
vn 0.000000 1.000000 0.000000
vn 0.000000 1.000000 0.000000
vn 0.000000 1.000000 0.000000
vn 0.000000 1.000000 0.000000
vn 0.000000 1.000000 0.000000
vn 0.000000 1.000000 0.000000
vn 0.000000 1.000000 0.000000
vn 0.000000 1.000000 0.000000
vn 0.000000 1.000000 0.000000
vn 0.000000 1.000000 0.000000
vn 0.000000 1.000000 0.000000
vn 0.000000 1.000000 0.000000
vn 0.000000 1.000000 0.000000
vn 0.000000 1.000000 0.000000
vn 0.000000 1.000000 0.000000
vn 0.000000 1.000000 0.000000
vn 0.000000 1.000000 0.000000
vn 0.000000 1.000000 0.000000
vn 0.000000 1.000000 0.000000
vn 0.000000 1.000000 0.000000
vn 0.000000 1.000000 0.000000
vn 0.000000 1.000000 0.000000
vn 0.000000 1.000000 0.000000
vn 0.000000 1.000000 0.000000
vn 0.000000 1.000000 0.000000
vn 0.000000 1.000000 0.000000
vn 0.000000 1.000000 0.000000
vn 0.000000 1.000000 0.000000
vn 0.000000 1.000000 0.000000
vn 0.000000 1.000000 0.000000
vn 0.000000 1.000000 0.000000
vn 0.000000 1.000000 0.000000
vn 0.000000 1.000000 0.000000
vn 0.000000 1.000000 0.000000
vn 0.000000 1.000000 0.000000
vn 0.000000 1.000000 0.000000
vn 0.000000 1.000000 0.000000
vn 0.000000 1.000000 0.000000
vn 0.000000 1.000000 0.000000
vn 0.000000 1.000000 0.000000
vn 0.000000 1.000000 0.000000
vn 0.000000 1.000000 0.000000
vn 0.000000 1.000000 0.000000
vn 0.000000 1.000000 0.000000
vn 0.000000 1.000000 0.000000
vn 0.000000 1.000000 0.000000
vn 0.000000 1.000000 0.000000
vn 0.000000 1.000000 0.000000
vn 0.000000 1.000000 0.000000
vn 0.000000 1.000000 0.000000
vn 0.000000 1.000000 0.000000
vn 0.000000 1.000000 0.000000
vn 0.000000 1.000000 0.000000
vn -0.999625 0.000000 -0.027401
vn -0.999625 0.000000 -0.027401
vn -0.999625 0.000000 -0.027401
vn -0.999625 0.000000 -0.027401
vn -0.999625 0.000000 -0.027401
vn -0.999625 0.000000 -0.027401
vn -0.999625 0.000000 -0.027401
vn -0.999625 0.000000 -0.027401
vn -0.999625 0.000000 -0.027401
vn -0.999625 0.000000 -0.027401
vn -0.999625 0.000000 -0.027401
vn -0.999625 0.000000 -0.027401
vn -0.969787 -0.242497 -0.026600
vn -0.969787 -0.242497 -0.026600
vn -0.969787 -0.242497 -0.026600
vn -0.969787 -0.242497 -0.026600
vn -0.969787 -0.242497 -0.026600
vn -0.969787 -0.242497 -0.026600
vn -0.969787 -0.242497 -0.026600
vn -0.969787 -0.242497 -0.026600
vn -0.969787 -0.242497 -0.026600
vn 0.026600 -0.242497 -0.969787
vn 0.026600 -0.242497 -0.969787
vn 0.026600 -0.242497 -0.969787
vn 0.026600 -0.242497 -0.969787
vn 0.026600 -0.242497 -0.969787
vn 0.026600 -0.242497 -0.969787
vn 0.026600 -0.242497 -0.969787
vn 0.026600 -0.242497 -0.969787
vn 0.026600 -0.242497 -0.969787
vn -0.666995 -0.242498 -0.704495
vn -0.666995 -0.242498 -0.704495
vn -0.666995 -0.242498 -0.704495
vn -0.666995 -0.242498 -0.704495
vn -0.666995 -0.242498 -0.704495
vn -0.666995 -0.242498 -0.704495
vn -0.027401 0.000000 0.999625
vn -0.027401 0.000000 0.999625
vn -0.027401 0.000000 0.999625
vn -0.027401 0.000000 0.999625
vn -0.027401 0.000000 0.999625
vn -0.027401 0.000000 0.999625
vn 0.999625 0.000000 0.027401
vn 0.999625 0.000000 0.027401
vn 0.999625 0.000000 0.027401
vn 0.999625 0.000000 0.027401
vn 0.999625 0.000000 0.027401
vn 0.999625 0.000000 0.027401
vn 0.027401 0.000000 -0.999625
vn 0.027401 0.000000 -0.999625
vn 0.027401 0.000000 -0.999625
vn 0.027401 0.000000 -0.999625
vn 0.027401 0.000000 -0.999625
vn 0.027401 0.000000 -0.999625
vn -0.027401 0.000000 0.999625
vn -0.027401 0.000000 0.999625
vn -0.027401 0.000000 0.999625
vn -0.027401 0.000000 0.999625
vn -0.027401 0.000000 0.999625
vn -0.027401 0.000000 0.999625
vn 0.999625 0.000000 0.027401
vn 0.999625 0.000000 0.027401
vn 0.999625 0.000000 0.027401
vn 0.999625 0.000000 0.027401
vn 0.999625 0.000000 0.027401
vn 0.999625 0.000000 0.027401
vn 0.999625 0.000000 0.027401
vn 0.999625 0.000000 0.027401
vn 0.999625 0.000000 0.027401
vn 0.027401 0.000000 -0.999625
vn 0.027401 0.000000 -0.999625
vn 0.027401 0.000000 -0.999625
vn 0.027401 0.000000 -0.999625
vn 0.027401 0.000000 -0.999625
vn 0.027401 0.000000 -0.999625
vn 0.027401 0.000000 -0.999625
vn 0.027401 0.000000 -0.999625
vn 0.027401 0.000000 -0.999625
vn 0.704495 -0.242498 -0.666995
vn 0.704495 -0.242498 -0.666995
vn 0.704495 -0.242498 -0.666995
vn 0.704495 -0.242498 -0.666995
vn 0.704495 -0.242498 -0.666995
vn 0.704495 -0.242498 -0.666995
vn 0.666995 -0.242498 0.704495
vn 0.666995 -0.242498 0.704495
vn 0.666995 -0.242498 0.704495
vn 0.666995 -0.242498 0.704495
vn 0.666995 -0.242498 0.704495
vn 0.666995 -0.242498 0.704495
vn 0.666995 -0.242498 0.704495
vn 0.666995 -0.242498 0.704495
vn 0.666995 -0.242498 0.704495
vn 0.969787 -0.242497 0.026600
vn 0.969787 -0.242497 0.026600
vn 0.969787 -0.242497 0.026600
vn 0.969787 -0.242497 0.026600
vn 0.969787 -0.242497 0.026600
vn 0.969787 -0.242497 0.026600
vn 0.969787 -0.242497 0.026600
vn 0.969787 -0.242497 0.026600
vn 0.969787 -0.242497 0.026600
vn -0.026600 -0.242497 0.969787
vn -0.026600 -0.242497 0.969787
vn -0.026600 -0.242497 0.969787
vn -0.026600 -0.242497 0.969787
vn -0.026600 -0.242497 0.969787
vn -0.026600 -0.242497 0.969787
vn -0.026600 -0.242497 0.969787
vn -0.026600 -0.242497 0.969787
vn -0.026600 -0.242497 0.969787
vn -0.704495 -0.242498 0.666995
vn -0.704495 -0.242498 0.666995
vn -0.704495 -0.242498 0.666995
vn -0.704495 -0.242498 0.666995
vn -0.704495 -0.242498 0.666995
vn -0.704495 -0.242498 0.666995
vn 0.000000 1.000000 0.000000
vn 0.000000 1.000000 0.000000
vn 0.000000 1.000000 0.000000
vn 0.000000 1.000000 0.000000
vn 0.000000 1.000000 0.000000
vn 0.000000 1.000000 0.000000
vn 0.000000 1.000000 0.000000
vn 0.000000 1.000000 0.000000
vn 0.000000 1.000000 0.000000
vn 0.000000 1.000000 0.000000
vn 0.000000 1.000000 0.000000
vn 0.000000 1.000000 0.000000
vn 0.000000 1.000000 0.000000
vn 0.000000 1.000000 0.000000
vn 0.000000 1.000000 0.000000
vn 0.000000 1.000000 0.000000
vn 0.000000 1.000000 0.000000
vn 0.000000 1.000000 0.000000
vn 0.000000 1.000000 0.000000
vn 0.000000 1.000000 0.000000
vn 0.000000 1.000000 0.000000
vn 0.000000 1.000000 0.000000
vn 0.000000 1.000000 0.000000
vn 0.000000 1.000000 0.000000
vn 0.000000 1.000000 0.000000
vn 0.000000 1.000000 0.000000
vn 0.000000 1.000000 0.000000
vn 0.000000 1.000000 0.000000
vn 0.000000 1.000000 0.000000
vn 0.000000 1.000000 0.000000
vn 0.000000 -1.000000 0.000000
vn 0.000000 -1.000000 0.000000
vn 0.000000 -1.000000 0.000000
vn 0.000000 -1.000000 0.000000
vn 0.000000 -1.000000 0.000000
vn 0.000000 -1.000000 0.000000
vn 0.000000 -1.000000 0.000000
vn 0.000000 -1.000000 0.000000
vn 0.000000 -1.000000 0.000000
vn 0.000000 -1.000000 0.000000
vn 0.000000 -1.000000 0.000000
vn 0.000000 -1.000000 0.000000
vn 0.000000 -1.000000 0.000000
vn 0.000000 -1.000000 0.000000
vn 0.000000 -1.000000 0.000000
vn 0.000000 -1.000000 0.000000
vn 0.000000 -1.000000 0.000000
vn 0.000000 -1.000000 0.000000
vn 0.000000 1.000000 0.000000
vn 0.000000 1.000000 0.000000
vn 0.000000 1.000000 0.000000
vn -1.000000 0.000000 -0.000000
vn -1.000000 0.000000 -0.000000
vn -1.000000 0.000000 -0.000000
vn -1.000000 0.000000 -0.000000
vn -1.000000 0.000000 -0.000000
vn -1.000000 0.000000 -0.000000
vn 1.000000 0.000000 0.000000
vn 1.000000 0.000000 0.000000
vn 1.000000 0.000000 0.000000
vn 1.000000 0.000000 0.000000
vn 1.000000 0.000000 0.000000
vn 1.000000 0.000000 0.000000
vn 0.000000 0.000000 1.000000
vn 0.000000 0.000000 1.000000
vn 0.000000 0.000000 1.000000
vn 0.000000 0.000000 1.000000
vn 0.000000 0.000000 1.000000
vn 0.000000 0.000000 1.000000
vn 0.000000 1.000000 0.000000
vn 0.000000 1.000000 0.000000
vn 0.000000 1.000000 0.000000
vn 0.000000 1.000000 0.000000
vn 0.000000 1.000000 0.000000
vn 0.000000 1.000000 0.000000
vn 0.000000 1.000000 0.000000
vn 0.000000 1.000000 0.000000
vn 0.000000 1.000000 0.000000
vn 0.000000 0.000000 -1.000000
vn 0.000000 0.000000 -1.000000
vn 0.000000 0.000000 -1.000000
vn 0.000000 0.000000 -1.000000
vn 0.000000 0.000000 -1.000000
vn 0.000000 0.000000 -1.000000
vn 1.000000 0.000000 0.000000
vn 1.000000 0.000000 0.000000
vn 1.000000 0.000000 0.000000
vn 1.000000 0.000000 0.000000
vn 1.000000 0.000000 0.000000
vn 1.000000 0.000000 0.000000
vn 0.000000 0.000000 -1.000000
vn 0.000000 0.000000 -1.000000
vn 0.000000 0.000000 -1.000000
vn 0.000000 0.000000 -1.000000
vn 0.000000 0.000000 -1.000000
vn 0.000000 0.000000 -1.000000
vn 0.000000 0.000000 -1.000000
vn 0.000000 0.000000 -1.000000
vn 0.000000 0.000000 -1.000000
vn 0.000000 0.000000 -1.000000
vn 0.000000 0.000000 -1.000000
vn 0.000000 0.000000 -1.000000
vn -1.000000 0.000000 -0.000000
vn -1.000000 0.000000 -0.000000
vn -1.000000 0.000000 -0.000000
vn -1.000000 0.000000 -0.000000
vn -1.000000 0.000000 -0.000000
vn -1.000000 0.000000 -0.000000
s off
g Layer0_001
usemtl ControlTower_initialShadingGroup
f 2/52/1 3/53/2 1/54/3
f 1/54/4 3/53/5 4/55/6
f 4/55/7 3/53/8 6/57/9
f 6/57/10 3/53/11 5/59/12
f 6/57/13 5/59/14 7/61/15
f 7/61/16 5/59/17 8/63/18
f 10/67/19 9/65/20 5/59/21
f 9/65/22 8/63/23 5/59/24
f 5/59/25 11/62/26 10/67/27
f 10/67/28 11/62/29 12/66/30
f 14/60/31 13/64/32 11/62/33
f 13/64/34 12/66/35 11/62/36
f 11/62/37 2/52/38 14/60/39
f 14/60/40 2/52/41 15/58/42
f 1/54/43 16/56/44 2/52/45
f 15/58/46 2/52/47 16/56/48
f 18/68/49 19/69/50 17/70/51
f 17/70/52 19/69/53 20/72/54
f 17/70/55 20/72/56 21/74/57
f 21/74/58 20/72/59 22/73/60
f 21/74/61 22/73/62 23/75/63
f 23/75/64 22/73/65 18/68/66
f 22/73/67 24/71/68 18/68/69
f 18/68/70 24/71/71 19/69/72
f 25/76/73 26/77/74 28/78/75
f 28/78/76 26/77/77 27/79/78
f 28/78/79 27/79/80 30/80/81
f 30/80/82 27/79/83 29/81/84
f 30/80/85 29/81/86 32/82/87
f 32/82/88 29/81/89 31/83/90
f 32/82/91 31/83/92 33/84/93
f 34/85/94 35/86/95 37/87/96
f 37/87/97 35/86/98 36/88/99
f 37/87/100 36/88/101 38/90/102
f 38/90/103 36/88/104 39/92/105
f 40/97/106 39/92/107 41/94/108
f 39/92/109 36/88/110 41/94/111
f 41/94/112 36/88/113 42/96/114
f 44/98/115 40/97/116 43/95/117
f 40/97/118 41/94/119 43/95/120
f 44/98/121 43/95/122 45/91/123
f 45/91/124 43/95/125 46/93/126
f 37/87/127 45/91/128 47/89/129
f 47/89/130 45/91/131 46/93/132
f 34/85/133 37/87/134 47/89/135
f 24/1/136 3/2/137 19/3/138
f 19/3/139 3/2/140 2/4/141
f 37/5/142 18/6/143 45/7/144
f 45/7/145 18/6/146 17/8/147
f 1/9/148 26/10/149 16/11/150
f 16/11/151 26/10/152 25/13/153
f 16/11/154 25/13/155 15/15/156
f 12/125/157 13/126/158 28/127/159
f 13/126/160 14/128/161 28/127/162
f 12/125/163 28/127/164 30/129/165
f 14/17/166 15/15/167 28/16/168
f 28/16/169 15/15/170 25/13/171
f 24/130/172 22/131/173 3/132/174
f 3/132/175 22/131/176 5/133/177
f 5/18/178 22/19/179 11/20/180
f 11/20/181 22/19/182 20/21/183
f 20/134/184 19/135/185 11/136/186
f 11/136/187 19/135/188 2/137/189
f 37/138/190 38/139/191 18/140/192
f 18/140/193 38/139/194 23/141/195
f 38/22/196 39/23/197 23/24/198
f 23/24/199 39/23/200 21/25/201
f 21/25/202 39/23/203 40/26/204
f 40/142/205 44/143/206 17/144/207
f 44/143/208 45/145/209 17/144/210
f 40/142/211 17/144/212 21/146/213
f 32/27/214 10/31/215 30/33/216
f 30/33/217 10/31/218 12/35/219
f 7/34/220 8/30/221 29/32/222
f 29/32/223 8/30/224 33/28/225
f 29/81/226 33/84/227 31/83/228
f 32/27/229 33/28/230 9/29/231
f 9/29/232 33/28/233 8/30/234
f 32/27/235 9/29/236 10/31/237
f 4/147/238 6/148/239 29/149/240
f 6/148/241 7/150/242 29/149/243
f 4/147/244 29/149/245 27/151/246
f 4/14/247 27/12/248 1/9/249
f 1/9/250 27/12/251 26/10/252
f 1/99/253 4/100/254 16/101/255
f 16/101/256 4/100/257 15/102/258
f 14/104/259 15/102/260 6/103/261
f 6/103/262 15/102/263 4/100/264
f 14/104/265 6/103/266 13/105/267
f 13/105/268 6/103/269 7/106/270
f 12/108/271 13/105/272 8/107/273
f 8/107/274 13/105/275 7/106/276
f 10/110/277 12/108/278 9/109/279
f 9/109/280 12/108/281 8/107/282
f 49/111/283 50/112/284 48/113/285
f 48/113/286 50/112/287 51/114/288
f 51/114/289 52/115/290 48/113/291
f 48/113/292 52/115/293 53/117/294
f 48/113/295 53/117/296 54/118/297
f 52/115/298 51/114/299 55/116/300
f 40/119/301 44/120/302 39/121/303
f 53/36/304 35/37/305 54/38/306
f 54/38/307 35/37/308 34/39/309
f 36/40/310 52/41/311 42/42/312
f 42/42/313 52/41/314 55/43/315
f 53/152/316 52/153/317 35/154/318
f 35/154/319 52/153/320 36/155/321
f 45/124/322 37/123/323 44/120/324
f 44/120/325 37/123/326 38/122/327
f 44/120/328 38/122/329 39/121/330
f 50/156/331 49/157/332 43/158/333
f 43/158/334 49/157/335 46/159/336
f 41/44/337 51/45/338 43/46/339
f 43/46/340 51/45/341 50/47/342
f 55/160/343 51/161/344 42/162/345
f 42/162/346 51/161/347 41/163/348
f 48/164/349 54/165/350 47/166/351
f 47/166/352 54/165/353 34/167/354
f 48/48/355 47/49/356 49/50/357
f 49/50/358 47/49/359 46/51/360
